<svg width="30" height="30" viewBox="0 0 30 30" fill="none" xmlns="http://www.w3.org/2000/svg">
<path fill-rule="evenodd" clip-rule="evenodd" d="M15 1.75C10.2816 1.75 6.21909 5.08046 5.29372 9.70727L3.72648 17.5435C3.24053 19.9732 4.53052 22.4176 6.78565 23.4199C7.65674 23.8071 8.55158 24.1293 9.46221 24.3866L9.62753 24.7586C10.5711 26.8817 12.6766 28.25 15 28.25C17.3234 28.25 19.4289 26.8817 20.3725 24.7586L20.5378 24.3866C21.4485 24.1293 22.3433 23.8071 23.2144 23.4199C25.4695 22.4176 26.7595 19.9732 26.2736 17.5435L25.8605 15.4779C25.7792 15.0717 25.3841 14.8083 24.9779 14.8896C24.5718 14.9708 24.3084 15.3659 24.3896 15.7721L24.8027 17.8377C25.1491 19.5694 24.2282 21.3279 22.6052 22.0492C21.7264 22.4398 20.8212 22.7589 19.8993 23.0067C19.8385 23.015 19.7789 23.0307 19.7222 23.0534C16.6341 23.8509 13.3659 23.8508 10.2778 23.0533C10.2211 23.0307 10.1616 23.015 10.1008 23.0067C9.17883 22.7589 8.27365 22.4398 7.39485 22.0492C5.77185 21.3279 4.85101 19.5694 5.19735 17.8377L6.76459 10.0014C7.54973 6.07577 10.9966 3.25 15 3.25C18.8521 3.25 22.1891 5.86633 23.1351 9.56103C23.2379 9.9623 23.6465 10.2043 24.0477 10.1016C24.449 9.99882 24.691 9.59024 24.5883 9.18897C23.4731 4.8336 19.5404 1.75 15 1.75ZM11.3749 24.8279C12.1801 26.0163 13.5316 26.75 15 26.75C16.4684 26.75 17.8199 26.0163 18.6251 24.8279C16.2311 25.2593 13.7689 25.2593 11.3749 24.8279Z" fill="#D9E7FA"/>
</svg>
