<svg width="20" height="20" viewBox="0 0 20 20" fill="none" xmlns="http://www.w3.org/2000/svg">
<path d="M18.3333 14.5833H12.5" stroke="#005FDB" stroke-width="1.5" stroke-miterlimit="10" stroke-linecap="round" stroke-linejoin="round"/>
<path d="M4.16666 14.5833H1.66666" stroke="#005FDB" stroke-width="1.5" stroke-miterlimit="10" stroke-linecap="round" stroke-linejoin="round"/>
<path d="M18.3333 5.41669H15.8333" stroke="#005FDB" stroke-width="1.5" stroke-miterlimit="10" stroke-linecap="round" stroke-linejoin="round"/>
<path d="M7.49999 5.41669H1.66666" stroke="#005FDB" stroke-width="1.5" stroke-miterlimit="10" stroke-linecap="round" stroke-linejoin="round"/>
<path d="M5.83332 12.0833H10.8333C11.75 12.0833 12.5 12.5 12.5 13.75V15.4166C12.5 16.6666 11.75 17.0833 10.8333 17.0833H5.83332C4.91666 17.0833 4.16666 16.6666 4.16666 15.4166V13.75C4.16666 12.5 4.91666 12.0833 5.83332 12.0833Z" stroke="#005FDB" stroke-width="1.5" stroke-miterlimit="10" stroke-linecap="round" stroke-linejoin="round"/>
<path d="M14.1667 2.91669C15.0833 2.91669 15.8333 3.33335 15.8333 4.58335V6.25002C15.8333 7.50002 15.0833 7.91669 14.1667 7.91669H9.16667C8.25 7.91669 7.5 7.50002 7.5 6.25002V4.58335C7.5 3.33335 8.25 2.91669 9.16667 2.91669H10.8584" stroke="#005FDB" stroke-width="1.5" stroke-miterlimit="10" stroke-linecap="round" stroke-linejoin="round"/>
</svg>
