<svg width="20" height="20" viewBox="0 0 20 20" fill="none" xmlns="http://www.w3.org/2000/svg">
<path fill-rule="evenodd" clip-rule="evenodd" d="M17.5834 9.99999C17.5834 5.81183 14.1882 2.41666 10 2.41666C8.92013 2.41666 7.89483 2.64193 6.96697 3.04733C6.5874 3.21317 6.14526 3.03991 5.97942 2.66034C5.81358 2.28078 5.98684 1.83864 6.36641 1.6728C7.48009 1.18621 8.70956 0.916656 10 0.916656C15.0166 0.916656 19.0834 4.9834 19.0834 9.99999C19.0834 15.0166 15.0166 19.0833 10 19.0833C4.98343 19.0833 0.916687 15.0166 0.916687 9.99999C0.916687 7.9556 1.59298 6.06701 2.73373 4.54867C2.98254 4.21751 3.4527 4.15075 3.78386 4.39956C4.11502 4.64836 4.18178 5.11852 3.93297 5.44968C2.9807 6.71716 2.41669 8.29163 2.41669 9.99999C2.41669 14.1881 5.81186 17.5833 10 17.5833C14.1882 17.5833 17.5834 14.1881 17.5834 9.99999ZM14.0161 6.97701C14.1455 6.6924 14.0847 6.35739 13.8637 6.13633C13.6426 5.91526 13.3076 5.85451 13.023 5.98388L9.53211 7.57065L9.47239 7.59777L9.47238 7.59777C9.12607 7.75497 8.85338 7.87874 8.61395 8.05771C8.40285 8.21551 8.21554 8.40282 8.05775 8.61392C7.87878 8.85335 7.755 9.12604 7.59781 9.47235L7.5978 9.47236L7.57068 9.53208L5.98391 13.023C5.85454 13.3076 5.91529 13.6426 6.13636 13.8637C6.35742 14.0847 6.69243 14.1455 6.97704 14.0161L10.4679 12.4293L10.5277 12.4022C10.874 12.245 11.1467 12.1212 11.3861 11.9423C11.5972 11.7845 11.7845 11.5972 11.9423 11.3861C12.1213 11.1466 12.245 10.8739 12.4022 10.5276L12.4294 10.4679L14.0161 6.97701ZM10.1528 8.9362L11.823 8.17704L11.0638 9.8472C10.8667 10.2808 10.8105 10.3949 10.7408 10.488C10.6691 10.5839 10.584 10.6691 10.488 10.7408C10.3949 10.8104 10.2808 10.8667 9.84723 11.0638L8.17707 11.8229L8.93623 10.1528C9.13331 9.71921 9.18957 9.60513 9.25919 9.51198C9.33092 9.41603 9.41606 9.33089 9.51201 9.25916C9.60516 9.18954 9.71924 9.13328 10.1528 8.9362Z" fill="#D9E7FA"/>
</svg>
