<svg width="20" height="20" viewBox="0 0 20 20" fill="none" xmlns="http://www.w3.org/2000/svg">
<path d="M6.55831 3.82501C5.34998 4.12501 4.12498 5.35001 3.82498 6.55834L1.74998 14.8333C1.12498 17.3333 2.65831 18.875 5.16664 18.25L13.4416 16.1833C14.6416 15.8833 15.875 14.65 16.175 13.45L18.25 5.16668C18.875 2.66668 17.3416 1.12501 14.8333 1.75001L10.8416 2.75001" stroke="#D9E7FA" stroke-width="1.5" stroke-linecap="round" stroke-linejoin="round"/>
<path d="M9.99998 12.9167C11.6108 12.9167 12.9166 11.6108 12.9166 10C12.9166 8.38918 11.6108 7.08334 9.99998 7.08334C8.38915 7.08334 7.08331 8.38918 7.08331 10C7.08331 11.6108 8.38915 12.9167 9.99998 12.9167Z" stroke="#D9E7FA" stroke-width="1.5" stroke-linecap="round" stroke-linejoin="round"/>
</svg>
