<svg width="24" height="25" viewBox="0 0 24 25" fill="none" xmlns="http://www.w3.org/2000/svg">
<path d="M5 10.75C3.9 10.75 3 11.65 3 12.75C3 13.85 3.9 14.75 5 14.75C6.1 14.75 7 13.85 7 12.75C7 11.65 6.1 10.75 5 10.75Z" stroke="#D9E7FA" stroke-width="1.5"/>
<path d="M19 10.75C17.9 10.75 17 11.65 17 12.75C17 13.85 17.9 14.75 19 14.75C20.1 14.75 21 13.85 21 12.75C21 11.65 20.1 10.75 19 10.75Z" stroke="#D9E7FA" stroke-width="1.5"/>
<path d="M10 12.75C10 13.85 10.9 14.75 12 14.75C13.1 14.75 14 13.85 14 12.75C14 11.65 13.1 10.75 12 10.75" stroke="#D9E7FA" stroke-width="1.5" stroke-linecap="round" stroke-linejoin="round"/>
</svg>
