<svg width="20" height="20" viewBox="0 0 20 20" fill="none" xmlns="http://www.w3.org/2000/svg">
<path d="M1.66669 10.8333C1.66669 8.625 2.62502 7.37502 4.16669 6.90002C4.66669 6.74169 5.22502 6.66666 5.83335 6.66666H14.1667C14.775 6.66666 15.3334 6.74169 15.8334 6.90002C17.375 7.37502 18.3334 8.625 18.3334 10.8333V14.1667C18.3334 17.0833 16.6667 18.3333 14.1667 18.3333H5.83335C3.33335 18.3333 1.66669 17.0833 1.66669 14.1667" stroke="#D9E7FA" stroke-width="1.5" stroke-miterlimit="10" stroke-linecap="round" stroke-linejoin="round"/>
<path d="M15.8334 5.83333V6.90002C15.3334 6.74169 14.775 6.66666 14.1667 6.66666H5.83335C5.22502 6.66666 4.66669 6.74169 4.16669 6.90002V5.83333C4.16669 4.91666 4.91669 4.16666 5.83335 4.16666H14.1667C15.0834 4.16666 15.8334 4.91666 15.8334 5.83333Z" stroke="#D9E7FA" stroke-width="1.5" stroke-miterlimit="10" stroke-linecap="round" stroke-linejoin="round"/>
<path d="M13.3334 2.92501V4.16666H6.66669V2.92501C6.66669 2.23334 7.23336 1.66666 7.92503 1.66666H12.075C12.7667 1.66666 13.3334 2.23334 13.3334 2.92501Z" stroke="#D9E7FA" stroke-width="1.5" stroke-miterlimit="10" stroke-linecap="round" stroke-linejoin="round"/>
<path d="M7.55832 16.2083C8.16583 16.2083 8.65833 15.7159 8.65833 15.1083C8.65833 14.5008 8.16583 14.0083 7.55832 14.0083C6.95081 14.0083 6.45831 14.5008 6.45831 15.1083C6.45831 15.7159 6.95081 16.2083 7.55832 16.2083Z" stroke="#D9E7FA" stroke-width="1.5" stroke-linecap="round" stroke-linejoin="round"/>
<path d="M12.7083 14.375V10.0667C12.7083 9.14999 12.1333 9.01666 11.55 9.18333L9.34169 9.78331C8.94168 9.89164 8.66669 10.2083 8.66669 10.6666V11.4333V11.95V15.1083" stroke="#D9E7FA" stroke-width="1.5" stroke-linecap="round" stroke-linejoin="round"/>
<path d="M11.6083 15.475C12.2158 15.475 12.7083 14.9825 12.7083 14.375C12.7083 13.7675 12.2158 13.275 11.6083 13.275C11.0008 13.275 10.5083 13.7675 10.5083 14.375C10.5083 14.9825 11.0008 15.475 11.6083 15.475Z" stroke="#D9E7FA" stroke-width="1.5" stroke-linecap="round" stroke-linejoin="round"/>
<path d="M8.66669 11.9583L12.7083 10.8584" stroke="#D9E7FA" stroke-width="1.5" stroke-linecap="round" stroke-linejoin="round"/>
</svg>
