<svg width="20" height="20" viewBox="0 0 20 20" fill="none" xmlns="http://www.w3.org/2000/svg">
<path d="M1.66669 9.99999C1.66669 7.08333 3.33335 5.83333 5.83335 5.83333H14.1667C16.6667 5.83333 18.3334 7.08333 18.3334 9.99999V14.1667C18.3334 17.0833 16.6667 18.3333 14.1667 18.3333H5.83335C3.33335 18.3333 1.66669 17.0833 1.66669 14.1667V13.475" stroke="#D9E7FA" stroke-width="1.5" stroke-miterlimit="10" stroke-linecap="round" stroke-linejoin="round"/>
<path d="M13.3333 3.75H15" stroke="#D9E7FA" stroke-width="1.5" stroke-miterlimit="10" stroke-linecap="round" stroke-linejoin="round"/>
<path d="M5 3.75H10.975" stroke="#D9E7FA" stroke-width="1.5" stroke-miterlimit="10" stroke-linecap="round" stroke-linejoin="round"/>
<path d="M7.5 1.66667H12.5" stroke="#D9E7FA" stroke-width="1.5" stroke-miterlimit="10" stroke-linecap="round" stroke-linejoin="round"/>
<path d="M7.40833 15.925C8.03885 15.925 8.54999 15.4139 8.54999 14.7833C8.54999 14.1528 8.03885 13.6417 7.40833 13.6417C6.7778 13.6417 6.26666 14.1528 6.26666 14.7833C6.26666 15.4139 6.7778 15.925 7.40833 15.925Z" stroke="#D9E7FA" stroke-width="1.5" stroke-linecap="round" stroke-linejoin="round"/>
<path d="M12.7333 14.025V9.56667C12.7333 8.61667 12.1417 8.48336 11.5333 8.65002L9.24996 9.27502C8.83329 9.39169 8.54999 9.71667 8.54999 10.1917V10.9833V11.5167V14.7833" stroke="#D9E7FA" stroke-width="1.5" stroke-linecap="round" stroke-linejoin="round"/>
<path d="M11.5916 15.1667C12.2221 15.1667 12.7333 14.6555 12.7333 14.025C12.7333 13.3945 12.2221 12.8833 11.5916 12.8833C10.9611 12.8833 10.45 13.3945 10.45 14.025C10.45 14.6555 10.9611 15.1667 11.5916 15.1667Z" stroke="#D9E7FA" stroke-width="1.5" stroke-linecap="round" stroke-linejoin="round"/>
<path d="M8.54999 11.525L12.7333 10.3833" stroke="#D9E7FA" stroke-width="1.5" stroke-linecap="round" stroke-linejoin="round"/>
</svg>
