<svg width="20" height="21" viewBox="0 0 20 21" fill="none" xmlns="http://www.w3.org/2000/svg">
<path d="M1.68331 10.6833C1.59164 5.99997 5.29165 2.20831 9.97499 2.20831C14.6583 2.20831 18.35 5.99998 18.35 10.5916V15.725C18.35 17.35 17 18.7 15.375 18.7C13.75 18.7 12.4 17.35 12.4 15.725V13.3833C12.4 12.575 13.0333 11.85 13.9333 11.85C14.7417 11.85 15.4666 12.4833 15.4666 13.3833V15.9083" stroke="#D9E7FA" stroke-width="1.5" stroke-linecap="round" stroke-linejoin="round"/>
<path d="M4.5667 15.9083V13.475C4.5667 12.6667 5.20003 11.9417 6.10003 11.9417C6.90836 11.9417 7.63336 12.575 7.63336 13.475V15.8167C7.63336 17.4417 6.28336 18.7917 4.65836 18.7917C3.03336 18.7917 1.68335 17.4333 1.68335 15.8167V13.8417" stroke="#D9E7FA" stroke-width="1.5" stroke-linecap="round" stroke-linejoin="round"/>
<path d="M9.61669 7.325L9.23334 6.55835C9.14167 6.38335 8.89168 6.37501 8.80001 6.55001L8.10002 7.84166C8.01668 8 7.85003 8.09999 7.66669 8.09999H7.05835" stroke="#D9E7FA" stroke-width="1.5" stroke-linecap="round" stroke-linejoin="round"/>
<path d="M12.9417 8.10001H12.2667C12.0834 8.10001 11.9084 8.20835 11.825 8.36668L11.2 9.61668C11.1084 9.80001 10.85 9.80001 10.7584 9.61668" stroke="#D9E7FA" stroke-width="1.5" stroke-linecap="round" stroke-linejoin="round"/>
</svg>
